<svg xmlns="http://www.w3.org/2000/svg" width="32.47" height="55.688"><path id="arrow_right" data-name="arrow right" d="M1550.2 502.858a1.9 1.9 0 00-.56-1.283l-26-26a1.917 1.917 0 00-1.28-.558 1.941 1.941 0 00-1.29.558l-2.79 2.79a1.773 1.773 0 000 2.567l21.93 21.93-21.93 21.93a1.936 1.936 0 00-.55 1.283 1.829 1.829 0 00.55 1.284l2.79 2.79a1.941 1.941 0 001.29.558 1.917 1.917 0 001.28-.558l26-26a1.9 1.9 0 00.56-1.291z" transform="translate(-1517.72 -475)" fill="#fff" fill-rule="evenodd" opacity=".5"/></svg>