<svg xmlns="http://www.w3.org/2000/svg" width="14.844" height="14.84"><path id="g_" data-name="g+" d="M408.819 2831.37c0 1.56-1.481 2.09-2.811 2.09-1.429 0-3.357-.66-3.357-2.37 0-1.86 2.178-2.32 3.642-2.32a3.344 3.344 0 01.447.02c.91.63 2.079 1.33 2.079 2.58zm-1.071-7.7c0 1.09-.419 1.97-1.642 1.97-1.589 0-2.482-2.12-2.482-3.48a1.865 1.865 0 011.741-2.09c1.651 0 2.383 2.24 2.383 3.6zm-1.169-4.24a7.77 7.77 0 00-1.669.18 3.7 3.7 0 00-2.937 3.5 3.126 3.126 0 003.231 3.07c.206 0 .411-.02.625-.04a1.736 1.736 0 00.375 2.09c-1.6.05-4.079.46-4.874 2.06a2.782 2.782 0 00-.33 1.21c0 2.07 2.41 2.78 4.079 2.78a5.706 5.706 0 003.749-1.16 3.314 3.314 0 001.25-2.52c0-2.5-2.678-2.96-2.678-4.11 0-1.18 2-1.35 2-3.72a3.107 3.107 0 00-1.33-2.63h1.2l1.205-.71h-3.9zm9.275 2.29h-2.286v-2.29h-1.142v2.29h-2.285v1.14h2.285v2.28h1.142v-2.28h2.286v-1.14z" transform="translate(-401 -2819.44)" fill="#fff" fill-rule="evenodd"/></svg>