<svg xmlns="http://www.w3.org/2000/svg" width="29.719" height="29.68"><path id="g_" data-name="g+" d="M850.951 5080.29c0 3.13-2.963 4.2-5.623 4.2-2.857 0-6.713-1.32-6.713-4.75 0-3.71 4.356-4.64 7.284-4.64a6.673 6.673 0 01.893.04c1.821 1.26 4.159 2.66 4.159 5.15zm-2.142-15.38c0 2.17-.839 3.94-3.285 3.94-3.178 0-4.963-4.25-4.963-6.96 0-2.11 1.143-4.18 3.481-4.18 3.303 0 4.767 4.48 4.767 7.2zm-2.339-8.48a16.2 16.2 0 00-3.338.35 7.408 7.408 0 00-5.874 7 6.246 6.246 0 006.463 6.14 8.951 8.951 0 001.25-.09 4.689 4.689 0 00-.393 1.54 4.533 4.533 0 001.143 2.66c-3.2.09-8.159.91-9.748 4.12a5.473 5.473 0 00-.661 2.41c0 4.14 4.821 5.57 8.159 5.57a11.376 11.376 0 007.5-2.34 6.56 6.56 0 002.5-5.03c0-5-5.356-5.91-5.356-8.21 0-2.36 4-2.72 4-7.45a6.212 6.212 0 00-2.66-5.26h2.41l2.41-1.41h-7.8zm18.549 4.57h-4.57v-4.57h-2.285v4.57h-4.57v2.28h4.57v4.57h2.285v-4.57h4.57V5061z" transform="translate(-835.312 -5056.44)" fill="#fff" fill-rule="evenodd"/></svg>