<svg xmlns="http://www.w3.org/2000/svg" width="28.125" height="22.84"><path id="twit" d="M762.234 5061.42a11.609 11.609 0 01-3.321.9 5.77 5.77 0 002.535-3.18 11.352 11.352 0 01-3.659 1.39 5.773 5.773 0 00-9.98 3.95 6.506 6.506 0 00.143 1.32 16.392 16.392 0 01-11.89-6.04 5.783 5.783 0 001.785 7.72 5.854 5.854 0 01-2.607-.74v.08a5.755 5.755 0 004.624 5.65 5.867 5.867 0 01-1.517.2 6.506 6.506 0 01-1.089-.09 5.766 5.766 0 005.391 4 11.562 11.562 0 01-7.158 2.46 10.662 10.662 0 01-1.393-.07 16.233 16.233 0 008.855 2.59c10.6 0 16.407-8.78 16.407-16.4 0-.25 0-.5-.018-.75a12.48 12.48 0 002.892-2.99z" transform="translate(-734.094 -5058.72)" fill="#fff" fill-rule="evenodd"/></svg>