<svg xmlns="http://www.w3.org/2000/svg" width="14.063" height="11.44"><path id="twit" d="M364.461 2821.93a6.151 6.151 0 01-1.661.45 2.886 2.886 0 001.268-1.59 5.552 5.552 0 01-1.83.69 2.886 2.886 0 00-4.99 1.98 3.293 3.293 0 00.072.66 8.213 8.213 0 01-5.945-3.02 2.892 2.892 0 00.892 3.86 2.862 2.862 0 01-1.3-.37v.04a2.887 2.887 0 002.312 2.83 3.167 3.167 0 01-.759.09 3.249 3.249 0 01-.544-.04 2.9 2.9 0 002.695 2 5.749 5.749 0 01-3.579 1.23c-.241 0-.464-.01-.7-.03a8.212 8.212 0 0012.631-6.91c0-.13 0-.25-.009-.38a6.219 6.219 0 001.447-1.49z" transform="translate(-350.406 -2820.56)" fill="#fff" fill-rule="evenodd"/></svg>