<svg xmlns="http://www.w3.org/2000/svg" width="29.719" height="29.68" viewBox="0 0 29.719 29.68">
  <defs>
    <style>
      .cls-1 {
        fill: #fff;
        fill-rule: evenodd;
      }
    </style>
  </defs>
  <path id="g_" data-name="g+" class="cls-1" d="M850.951,5080.29c0,3.13-2.963,4.2-5.623,4.2-2.857,0-6.713-1.32-6.713-4.75,0-3.71,4.356-4.64,7.284-4.64a6.673,6.673,0,0,1,.893.04C848.613,5076.4,850.951,5077.8,850.951,5080.29Zm-2.142-15.38c0,2.17-.839,3.94-3.285,3.94-3.178,0-4.963-4.25-4.963-6.96,0-2.11,1.143-4.18,3.481-4.18C847.345,5057.71,848.809,5062.19,848.809,5064.91Zm-2.339-8.48a16.2,16.2,0,0,0-3.338.35,7.408,7.408,0,0,0-5.874,7,6.246,6.246,0,0,0,6.463,6.14,8.951,8.951,0,0,0,1.25-.09,4.689,4.689,0,0,0-.393,1.54,4.533,4.533,0,0,0,1.143,2.66c-3.2.09-8.159,0.91-9.748,4.12a5.473,5.473,0,0,0-.661,2.41c0,4.14,4.821,5.57,8.159,5.57a11.376,11.376,0,0,0,7.5-2.34,6.56,6.56,0,0,0,2.5-5.03c0-5-5.356-5.91-5.356-8.21,0-2.36,4-2.72,4-7.45a6.212,6.212,0,0,0-2.66-5.26h2.41l2.41-1.41h-7.8Zm18.549,4.57h-4.57v-4.57h-2.285V5061h-4.57v2.28h4.57v4.57h2.285v-4.57h4.57V5061Z" transform="translate(-835.312 -5056.44)"/>
</svg>
