<svg xmlns="http://www.w3.org/2000/svg" width="14.844" height="14.84" viewBox="0 0 14.844 14.84">
  <defs>
    <style>
      .cls-1 {
        fill: #fff;
        fill-rule: evenodd;
      }
    </style>
  </defs>
  <path id="g_" data-name="g+" class="cls-1" d="M408.819,2831.37c0,1.56-1.481,2.09-2.811,2.09-1.429,0-3.357-.66-3.357-2.37,0-1.86,2.178-2.32,3.642-2.32a3.344,3.344,0,0,1,.447.02C407.65,2829.42,408.819,2830.12,408.819,2831.37Zm-1.071-7.7c0,1.09-.419,1.97-1.642,1.97-1.589,0-2.482-2.12-2.482-3.48a1.865,1.865,0,0,1,1.741-2.09C407.016,2820.07,407.748,2822.31,407.748,2823.67Zm-1.169-4.24a7.77,7.77,0,0,0-1.669.18,3.7,3.7,0,0,0-2.937,3.5,3.126,3.126,0,0,0,3.231,3.07c0.206,0,.411-0.02.625-0.04a1.736,1.736,0,0,0,.375,2.09c-1.6.05-4.079,0.46-4.874,2.06a2.782,2.782,0,0,0-.33,1.21c0,2.07,2.41,2.78,4.079,2.78a5.706,5.706,0,0,0,3.749-1.16,3.314,3.314,0,0,0,1.25-2.52c0-2.5-2.678-2.96-2.678-4.11,0-1.18,2-1.35,2-3.72a3.107,3.107,0,0,0-1.33-2.63h1.2l1.205-.71h-3.9Zm9.275,2.29h-2.286v-2.29h-1.142v2.29h-2.285v1.14h2.285v2.28h1.142v-2.28h2.286v-1.14Z" transform="translate(-401 -2819.44)"/>
</svg>
