<svg xmlns="http://www.w3.org/2000/svg" width="13.719" height="13.1" viewBox="0 0 13.719 13.1">
  <defs>
    <style>
      .cls-1 {
        fill: #fff;
        fill-rule: evenodd;
      }
    </style>
  </defs>
  <path id="lin" class="cls-1" d="M454.115,2823.87H451.17v8.84h2.945v-8.84Zm0.188-2.73a1.657,1.657,0,1,0-1.678,1.52h0.017A1.525,1.525,0,0,0,454.3,2821.14Zm10.408,6.5c0-2.71-1.446-3.98-3.383-3.98a2.928,2.928,0,0,0-2.669,1.49h0.018v-1.28H455.74s0.036,0.83,0,8.84h2.937v-4.93a2.248,2.248,0,0,1,.1-0.73,1.617,1.617,0,0,1,1.508-1.07c1.063,0,1.491.82,1.491,2v4.73h2.937v-5.07Z" transform="translate(-451 -2819.62)"/>
</svg>
