<svg xmlns="http://www.w3.org/2000/svg" width="27.407" height="26.22" viewBox="0 0 27.407 26.22">
  <defs>
    <style>
      .cls-1 {
        fill: #fff;
        fill-rule: evenodd;
      }
    </style>
  </defs>
  <path id="lin" class="cls-1" d="M941.543,5065.3h-5.892v17.69h5.892V5065.3Zm0.375-5.46a3.313,3.313,0,1,0-3.356,3.05H938.6A3.051,3.051,0,0,0,941.918,5059.84Zm20.816,13.01c0-5.43-2.892-7.96-6.766-7.96a5.837,5.837,0,0,0-5.338,2.98h0.036v-2.57h-5.874s0.072,1.66,0,17.69h5.874v-9.87a4.422,4.422,0,0,1,.2-1.45,3.223,3.223,0,0,1,3.017-2.14c2.125,0,2.982,1.62,2.982,4v9.46h5.873v-10.14Z" transform="translate(-935.312 -5056.78)"/>
</svg>
