<svg xmlns="http://www.w3.org/2000/svg" width="28.125" height="22.84" viewBox="0 0 28.125 22.84">
  <defs>
    <style>
      .cls-1 {
        fill: #fff;
        fill-rule: evenodd;
      }
    </style>
  </defs>
  <path id="twit" class="cls-1" d="M762.234,5061.42a11.609,11.609,0,0,1-3.321.9,5.77,5.77,0,0,0,2.535-3.18,11.352,11.352,0,0,1-3.659,1.39,5.773,5.773,0,0,0-9.98,3.95,6.506,6.506,0,0,0,.143,1.32,16.392,16.392,0,0,1-11.89-6.04,5.783,5.783,0,0,0,1.785,7.72,5.854,5.854,0,0,1-2.607-.74v0.08a5.755,5.755,0,0,0,4.624,5.65,5.867,5.867,0,0,1-1.517.2,6.506,6.506,0,0,1-1.089-.09,5.766,5.766,0,0,0,5.391,4,11.562,11.562,0,0,1-7.158,2.46,10.662,10.662,0,0,1-1.393-.07,16.233,16.233,0,0,0,8.855,2.59c10.6,0,16.407-8.78,16.407-16.4,0-.25,0-0.5-0.018-0.75A12.48,12.48,0,0,0,762.234,5061.42Z" transform="translate(-734.094 -5058.72)"/>
</svg>
