<svg xmlns="http://www.w3.org/2000/svg" width="14.063" height="11.44" viewBox="0 0 14.063 11.44">
  <defs>
    <style>
      .cls-1 {
        fill: #fff;
        fill-rule: evenodd;
      }
    </style>
  </defs>
  <path id="twit" class="cls-1" d="M364.461,2821.93a6.151,6.151,0,0,1-1.661.45,2.886,2.886,0,0,0,1.268-1.59,5.552,5.552,0,0,1-1.83.69,2.886,2.886,0,0,0-4.99,1.98,3.293,3.293,0,0,0,.072.66,8.213,8.213,0,0,1-5.945-3.02,2.892,2.892,0,0,0,.892,3.86,2.862,2.862,0,0,1-1.3-.37v0.04a2.887,2.887,0,0,0,2.312,2.83,3.167,3.167,0,0,1-.759.09,3.249,3.249,0,0,1-.544-0.04,2.9,2.9,0,0,0,2.695,2,5.749,5.749,0,0,1-3.579,1.23c-0.241,0-.464-0.01-0.7-0.03a8.212,8.212,0,0,0,12.631-6.91c0-.13,0-0.25-0.009-0.38A6.219,6.219,0,0,0,364.461,2821.93Z" transform="translate(-350.406 -2820.56)"/>
</svg>
